<svg xmlns="http://www.w3.org/2000/svg" version="1.1" viewBox="-5.0 -10.0 110.0 135.0">
 <g>
  <path d="m87.5 62.5c-0.011719-3.9648-2.5117-7.4922-6.25-8.8125v-9.9375c0-1.6641-0.66406-3.2617-1.8438-4.4375-1.1719-1.1641-2.7539-1.8125-4.4062-1.8125-7.7812 0-19.438 0-25 5.1562-5.5312-5.1562-17.188-5.1562-25-5.1562-3.4531 0-6.25 2.7969-6.25 6.25v9.9375c-3.707 1.3477-6.1758 4.8672-6.1758 8.8125s2.4688 7.4648 6.1758 8.8125v6.8125c0 1.6562 0.66016 3.2461 1.832 4.418s2.7617 1.832 4.418 1.832c10.812 0 21.875 0.84375 21.875 6.25 0 1.7266 1.3984 3.125 3.125 3.125s3.125-1.3984 3.125-3.125c0-5.4062 11.094-6.25 21.875-6.25 1.6562 0 3.2461-0.66016 4.418-1.832s1.832-2.7617 1.832-4.418v-6.8125c3.7383-1.3203 6.2383-4.8477 6.25-8.8125zm-65.625-3.125h3.125v6.25h-3.125c-1.7266 0-3.125-1.3984-3.125-3.125s1.3984-3.125 3.125-3.125zm3.125 18.75v-6.25c1.6562 0 3.2461-0.66016 4.418-1.832s1.832-2.7617 1.832-4.418v-6.25c0-1.6562-0.66016-3.2461-1.832-4.418s-2.7617-1.832-4.418-1.832v-9.375c10.812 0 21.875 0.84375 21.875 6.25v31.25c-6.0938-3.125-15.344-3.125-21.875-3.125zm28.125 3.125v-31.25c0-5.4062 11.062-6.25 21.875-6.25v9.375c-3.4531 0-6.25 2.7969-6.25 6.25v6.25c0 1.6562 0.66016 3.2461 1.832 4.418s2.7617 1.832 4.418 1.832v6.25c-6.5312 0-15.625 0-21.875 3.125zm25-15.625h-3.125v-6.25h3.125c1.7266 0 3.125 1.3984 3.125 3.125s-1.3984 3.125-3.125 3.125z"/>
  <path d="m50 34.375c5.6875 0 10.816-3.4258 12.992-8.6797 2.1758-5.2578 0.97266-11.305-3.0469-15.328-4.0234-4.0195-10.07-5.2227-15.328-3.0469-5.2539 2.1758-8.6797 7.3047-8.6797 12.992 0.015625 7.7578 6.3047 14.047 14.062 14.062zm0-21.875c3.1602 0 6.0078 1.9023 7.2188 4.8242 1.207 2.918 0.53906 6.2773-1.6953 8.5117-2.2344 2.2344-5.5938 2.9023-8.5117 1.6953-2.9219-1.2109-4.8242-4.0586-4.8242-7.2188 0-4.3164 3.4961-7.8125 7.8125-7.8125z"/>
 </g>
<text x="0.0" y="117.5" font-size="5.0" font-weight="bold" font-family="Arbeit Regular, Helvetica, Arial-Unicode, Arial, Sans-serif" fill="#000000">Created by Ahmad Roaayala</text><text x="0.0" y="122.5" font-size="5.0" font-weight="bold" font-family="Arbeit Regular, Helvetica, Arial-Unicode, Arial, Sans-serif" fill="#000000">from Noun Project</text></svg>